<?xml version="1.0" standalone="no"?><!DOCTYPE svg PUBLIC "-//W3C//DTD SVG 1.1//EN" "http://www.w3.org/Graphics/SVG/1.1/DTD/svg11.dtd"><svg t="1746937879854" class="icon" viewBox="0 0 1024 1024" version="1.1" xmlns="http://www.w3.org/2000/svg" p-id="1528" xmlns:xlink="http://www.w3.org/1999/xlink" width="200" height="200"><path d="M324.608 833.462857l4.827429 1.170286 6.217142 2.998857c95.012571 55.588571 218.477714 61.44 319.414858 16.530286l16.603428-7.972572 16.310857-8.923428 10.24-3.803429h8.192c21.650286 0 38.253714 17.408 38.253715 37.595429 0 13.897143-8.338286 24.649143-21.723429 33.353143a414.061714 414.061714 0 0 1-212.845714 57.417142 414.354286 414.354286 0 0 1-213.284572-57.636571 38.619429 38.619429 0 0 1-18.578285-33.133714c0-16.749714 9.216-29.988571 24.502857-35.254857l6.948571-1.755429 6.802286-0.585143h8.118857zM512.804571 62.171429c65.974857 0 120.027429 52.662857 120.027429 117.394285 0 47.250286-28.452571 89.526857-70.729143 107.885715l-9.947428 3.803428-1.170286 0.292572v94.427428l2.706286 0.658286c69.193143 16.749714 121.563429 72.118857 131.803428 140.434286l1.462857 13.019428 0.438857 11.776c0 10.24-1.389714 20.260571-4.096 32.256l-3.218285 12.726857-1.682286 5.558857 84.260571 47.396572 2.486858-2.194286c15.725714-12.653714 33.792-20.918857 53.394285-24.649143l11.922286-1.682285 12.288-0.585143c24.429714 0 43.812571 4.242286 59.977143 14.774857 58.514286 32.987429 77.531429 107.227429 39.277714 161.645714-23.405714 37.156571-62.025143 58.294857-104.740571 58.294857-24.356571 0-43.739429-4.169143-60.196572-14.848A119.734857 119.734857 0 0 1 718.994286 726.308571l1.609143-10.678857-82.797715-46.153143-2.194285 2.56a170.569143 170.569143 0 0 1-98.230858 50.980572l-14.336 1.609143-13.019428 0.512a178.688 178.688 0 0 1-114.541714-43.300572l-10.386286-9.508571-2.779429-3.072-83.382857 45.129143 0.585143 2.121143a116.077714 116.077714 0 0 1-39.570286 112.493714l-8.557714 6.363428-9.289143 5.632c-18.870857 9.216-39.497143 14.409143-59.318857 14.409143-43.812571 0-84.699429-21.942857-104.886857-58.514285-33.060571-55.734857-12.434286-129.097143 45.494857-161.792 18.870857-9.142857 39.497143-14.409143 59.392-14.409143 23.332571 0 47.250286 7.021714 67.803429 20.114285l9.947428 7.094858 1.901714 1.682285 83.894858-46.738285-0.731429-2.048a138.532571 138.532571 0 0 1-5.705143-23.625143l-1.316571-12.434286-0.438857-12.873143c0-74.605714 49.737143-138.678857 121.051428-161.645714l12.068572-3.437714 3.218285-0.731429V291.181714l-2.413714-0.731428c-40.448-15.36-69.851429-49.005714-77.531429-89.892572L393.289143 190.171429l-0.438857-10.605715C392.777143 114.834286 446.829714 62.171429 512.731429 62.171429z m332.653715 633.709714c-14.409143 0-27.794286 7.899429-37.302857 21.796571-12.726857 18.651429-6.217143 43.373714 16.091428 56.393143 6.656 4.388571 12.8 6.217143 21.211429 6.217143 14.482286 0 27.794286-7.899429 36.571428-20.626286 11.117714-21.577143 4.461714-46.811429-15.286857-57.636571a35.986286 35.986286 0 0 0-21.211428-6.144z m-662.674286 0c-8.338286 0-14.555429 1.828571-21.942857 6.582857a40.155429 40.155429 0 0 0-14.628572 57.197714c6.217143 11.995429 21.357714 20.626286 36.571429 20.626286 8.484571 0 14.628571-1.828571 22.089143-6.582857a40.155429 40.155429 0 0 0 14.628571-57.197714c-6.217143-12.068571-21.357714-20.626286-36.644571-20.626286zM512.877714 456.411429c-53.979429 0-98.084571 43.008-98.084571 95.378285 0 52.443429 44.105143 95.451429 98.011428 95.451429 54.125714 0 98.157714-43.008 98.157715-95.451429 0-52.370286-44.105143-95.378286-98.084572-95.378285zM710.948571 190.464l6.290286 2.925714 15.652572 8.777143c113.078857 66.194286 187.392 181.174857 199.021714 309.248l1.243428 17.554286 0.365715 17.554286-0.219429 12.653714a40.594286 40.594286 0 0 1-24.576 29.622857l-6.656 2.048-6.875428 0.731429-4.461715-0.146286a39.497143 39.497143 0 0 1-33.353143-28.964572l-0.877714-6.729142 0.365714-4.022858v-5.266285c0-118.930286-68.754286-230.765714-176.347428-288.694857a33.645714 33.645714 0 0 1-16.310857-50.176 39.497143 39.497143 0 0 1 46.738285-17.115429z m-351.085714 14.482286c11.483429 18.285714 4.388571 40.96-15.067428 52.224-99.035429 53.174857-165.010286 150.601143-175.981715 257.462857l-1.243428 16.091428-0.585143 19.090286c2.925714 17.042286-6.729143 30.72-23.259429 37.814857l-6.509714 2.267429-9.581714 1.609143-6.875429-0.877715a38.985143 38.985143 0 0 1-25.088-18.797714l-3.072-6.217143-2.121143-8.630857V546.377143c0-147.017143 83.090286-282.331429 216.283429-355.693714a39.277714 39.277714 0 0 1 53.028571 14.189714z m152.868572-67.657143a43.081143 43.081143 0 0 0-43.52 42.276571c0 23.113143 19.602286 42.203429 43.593142 42.203429 23.990857 0 43.52-19.090286 43.52-42.203429a43.081143 43.081143 0 0 0-43.52-42.276571z" fill="#6366f1" p-id="1529"></path></svg>